<svg xmlns="http://www.w3.org/2000/svg" viewBox="0 0 512 512" role="img" aria-label="PoolLog icon">
  <defs>
    <linearGradient id="bg" x1="0" y1="0" x2="1" y2="1">
      <stop offset="0%" stop-color="#0d6c70" />
      <stop offset="100%" stop-color="#081a2d" />
    </linearGradient>
    <linearGradient id="wave" x1="0" y1="0" x2="1" y2="0">
      <stop offset="0%" stop-color="#7ef2e4" />
      <stop offset="100%" stop-color="#f4b860" />
    </linearGradient>
  </defs>
  <rect width="512" height="512" rx="120" fill="url(#bg)" />
  <path d="M104 184c29 0 29 20 58 20s29-20 58-20 29 20 58 20 29-20 58-20 29 20 58 20" fill="none" stroke="#d8ffff" stroke-linecap="round" stroke-width="22" />
  <path d="M92 262c39 0 39 30 78 30s39-30 78-30 39 30 78 30 39-30 78-30 39 30 78 30" fill="none" stroke="url(#wave)" stroke-linecap="round" stroke-width="30" />
  <circle cx="256" cy="148" r="24" fill="#f4b860" />
  <path d="M152 338h208v26c0 32-26 58-58 58H210c-32 0-58-26-58-58z" fill="#d8ffff" opacity="0.16" />
  <path d="M190 334h132" stroke="#d8ffff" stroke-linecap="round" stroke-width="24" />
</svg>